HIERARCHY
ROOT Hips
{
    OFFSET 0.0 0.0 0.0
    CHANNELS 6 Xposition Yposition Zposition Zrotation Xrotation Yrotation
    JOINT LeftHipJoint
    {
        OFFSET 0.1 0.0 0.0
        CHANNELS 3 Zrotation Xrotation Yrotation
        JOINT LeftUpLeg
        {
            OFFSET 11.362306431761457 0.0 0.0
            CHANNELS 3 Zrotation Xrotation Yrotation
            JOINT LeftLeg
            {
                OFFSET 0.0 -49.54311506866986 0.0
                CHANNELS 3 Zrotation Xrotation Yrotation
                JOINT LeftFoot
                {
                    OFFSET 0.0 -47.3226039123563 0.0
                    CHANNELS 3 Zrotation Xrotation Yrotation
                    End Site
                    {
                        OFFSET 0.0 0.0 -0.1
                    }
                }
            }
        }
    }
    JOINT LowerBack
    {
        OFFSET 0.0 0.1 0.0
        CHANNELS 3 Zrotation Xrotation Yrotation
        JOINT Spine
        {
            OFFSET 0.0 23.7734860828389 0.0
            CHANNELS 3 Zrotation Xrotation Yrotation
            JOINT Spine1
            {
                OFFSET 0.0 25.638137968707934 0.0
                CHANNELS 3 Zrotation Xrotation Yrotation
                JOINT LeftShoulder
                {
                    OFFSET 0.1 0.0 0.0
                    CHANNELS 3 Zrotation Xrotation Yrotation
                    JOINT LeftArm
                    {
                        OFFSET 13.505195669849297 0.0 0.0
                        CHANNELS 3 Zrotation Xrotation Yrotation
                        JOINT LeftForeArm
                        {
                            OFFSET 27.63447433325428 0.0 0.0
                            CHANNELS 3 Zrotation Xrotation Yrotation
                            JOINT LeftHand
                            {
                                OFFSET 21.279673504043053 0.0 0.0
                                CHANNELS 3 Zrotation Xrotation Yrotation
                                End Site
                                {
                                    OFFSET 0.1 0.0 0.0
                                }
                            }
                        }
                    }
                }
                JOINT Neck
                {
                    OFFSET 0.0 0.1 0.0
                    CHANNELS 3 Zrotation Xrotation Yrotation
                    JOINT Neck1
                    {
                        OFFSET 0.0 15.122100355411579 0.0
                        CHANNELS 3 Zrotation Xrotation Yrotation
                        End Site
                        {
                            OFFSET 0.0 11.443440541606806 0.0
                        }
                    }
                }
                JOINT RightShoulder
                {
                    OFFSET -0.1 0.0 0.0
                    CHANNELS 3 Zrotation Xrotation Yrotation
                    JOINT RightArm
                    {
                        OFFSET -13.505195669849297 0.0 0.0
                        CHANNELS 3 Zrotation Xrotation Yrotation
                        JOINT RightForeArm
                        {
                            OFFSET -27.63447433325428 0.0 0.0
                            CHANNELS 3 Zrotation Xrotation Yrotation
                            JOINT RightHand
                            {
                                OFFSET -21.279673504043053 0.0 0.0
                                CHANNELS 3 Zrotation Xrotation Yrotation
                                End Site
                                {
                                    OFFSET -0.1 0.0 0.0
                                }
                            }
                        }
                    }
                }
            }
        }
    }
    JOINT RightHipJoint
    {
        OFFSET -0.1 0.0 0.0
        CHANNELS 3 Zrotation Xrotation Yrotation
        JOINT RightUpLeg
        {
            OFFSET -11.362306431761457 0.0 0.0
            CHANNELS 3 Zrotation Xrotation Yrotation
            JOINT RightLeg
            {
                OFFSET 0.0 -49.54311506866986 0.0
                CHANNELS 3 Zrotation Xrotation Yrotation
                JOINT RightFoot
                {
                    OFFSET 0.0 -47.3226039123563 0.0
                    CHANNELS 3 Zrotation Xrotation Yrotation
                    End Site
                    {
                        OFFSET 0.0 0.0 -0.1
                    }
                }
            }
        }
    }
}
MOTION
Frames: 7
Frame Time: 0.016666666666666666
0.0 0.0 100.47347915466602 0.3879463293197669 -13.905124775064017 154.18977779935776 0.0 0.0 -3.9756933518293955e-16 4.424731056491518 -19.941655660509703 2.9804373027914224 -2.352830413902064 -9.33439715842395 0.9399110904656973 0.0 0.0 0.0 0.0 0.0 -3.9756933518293955e-16 1.2978130851241065 -26.138736947312868 2.4387926500695234 -7.946204267824954e-16 -2.870335261294707e-17 4.137487989287703 3.975693351829396e-16 -1.7241821476758432e-33 -4.969616689786745e-16 -47.8399032903941 -18.79916657380061 33.21216393811578 -1.0287787773732412e-14 7.484401915391357e-15 107.92795672113813 0.0 0.0 0.0 3.975693351829396e-16 -1.7241821476758432e-33 -4.969616689786745e-16 -0.1483896417002784 -4.757209436489617 -0.3438775464297432 3.975693351829396e-16 -1.7241821476758432e-33 -4.969616689786745e-16 23.204182825800682 -62.23501236128986 -23.99351562220527 1.3547613824081016e-14 -8.914947548911085e-15 -89.31334352787677 0.0 0.0 3.1805546814635168e-15 0.0 0.0 -3.9756933518293955e-16 -7.035574637479567 -11.409789656191867 -0.5667382334727122 -6.521957449279627 -10.553563597163562 -1.7144037573270305 1.987846675914698e-16 -1.034509288605506e-33 -5.963540027744094e-16
0.0 0.0 100.47347915466602 -0.8349394321807174 -13.795431610227949 154.94492137669639 7.951386703658791e-16 -1.034509288605506e-33 -1.4908850069360232e-16 2.3727953393200045 -20.84517138533511 2.741631244866833 -2.473313992509265 -9.137780906205808 0.7414574489350377 7.951386703658792e-16 -9.655420026984722e-33 -1.3914926731402886e-15 7.951386703658791e-16 -1.034509288605506e-33 -1.4908850069360232e-16 -0.26394768452602224 -27.156890385563567 2.2850058132423032 -1.5895724578031236e-15 -4.7343656793803715e-17 3.41197413022892 1.1927080055488188e-15 2.275920434932113e-32 2.1866313435061676e-15 -49.40574659140593 -19.97777783914628 30.915978724481693 -4.676612635245565e-15 4.3846610008175916e-15 107.94086301324188 0.0 0.0 0.0 1.1927080055488188e-15 2.275920434932113e-32 2.1866313435061676e-15 0.29858210160468873 -6.7198822252355095 -0.7849290243242467 1.1927080055488188e-15 2.275920434932113e-32 2.1866313435061676e-15 23.0149515594734 -62.2271036470182 -25.814340630874494 1.9830554984016644e-15 1.1294890701259235e-14 -87.29610977264771 0.0 0.0 3.1805546814635168e-15 7.951386703658791e-16 -1.034509288605506e-33 -1.4908850069360232e-16 -8.183318597765737 -11.954888622851811 -0.6169328041615815 -6.508372320392037 -10.18485524690089 -1.6715366538816208 -5.963540027744094e-16 -4.138037154422024e-33 7.951386703658792e-16
0.0 0.0 100.47347915466602 -0.5587230883429113 -12.956739792790838 155.22154502176042 0.0 0.0 4.969616689786745e-17 2.002080945413283 -19.463709224377528 2.4281570039267777 -3.105223586384028 -8.596740993990537 0.5540905980302638 7.951386703658792e-16 2.758691436281349e-33 3.975693351829396e-16 0.0 0.0 4.969616689786745e-17 -0.3492294685514436 -27.42556180912714 2.2467525967963895 1.154411276741895e-15 1.6182920042675434e-15 2.7353458863128806 -3.975693351829396e-16 -6.896728590703373e-34 1.987846675914698e-16 -51.11791250091969 -21.13463018534533 26.19281424865033 1.443676101977782e-14 -1.2505422332212394e-14 102.97230685835912 0.0 0.0 0.0 -3.975693351829396e-16 -6.896728590703373e-34 1.987846675914698e-16 0.1650614826354564 -5.778046715997604 0.31805070908963023 -3.975693351829396e-16 -6.896728590703373e-34 1.987846675914698e-16 26.357213503482974 -61.60008209237293 -23.543433661456614 -1.3508667989927536e-14 2.06639917747061e-14 -83.7894799193354 0.0 0.0 0.0 0.0 0.0 4.969616689786745e-17 -8.14995666650313 -11.242691760955204 -0.5827200965434074 -6.160616625094135 -10.386502687482297 -1.6429233010038309 3.975693351829396e-16 8.276074308844047e-33 2.3854160110976376e-15
0.0 0.0 100.47347915466602 -1.5243569762070595 -13.278718312001041 154.52641059177904 0.0 0.0 -4.2241741863187335e-16 1.2833546883628852 -19.89084623394362 2.090500847973691 -3.5403496828519825 -9.980837124478631 0.3794160191167041 -3.975693351829396e-16 -3.4483642953516864e-33 9.93923337957349e-16 0.0 0.0 -4.2241741863187335e-16 -1.1461091440227233 -28.126415060834713 1.7280895495046649 3.97431528284413e-15 1.0466929030066635e-16 3.0172355145182745 2.782985346280577e-15 2.896626008095417e-32 1.1927080055488188e-15 -51.0975329526494 -21.063394989199196 24.250799287015546 -1.6385592010504843e-14 4.655256572389588e-16 98.55753470919939 -3.1805546814635168e-15 8.827812596100317e-32 -3.1805546814635168e-15 2.782985346280577e-15 2.896626008095417e-32 1.1927080055488188e-15 1.21514106555497 -5.382078159885268 4.123221268712813 2.782985346280577e-15 2.896626008095417e-32 1.1927080055488188e-15 30.909565127496588 -59.319316642246754 -20.957871632446054 4.477652369606841e-15 4.2718312292648256e-16 -79.10056744890899 0.0 -6.361109362927035e-15 0.0 0.0 0.0 -4.2241741863187335e-16 -8.592921350507405 -13.517436758604534 -0.8967491756443258 -6.935366764796835 -10.4913885547157 -1.9551571635329519 -3.975693351829396e-16 -4.138037154422024e-33 1.1927080055488188e-15
0.0 0.0 100.47347915466602 -1.8315707595629283 -12.30713238068691 152.73888539269842 0.0 0.0 8.199867538148129e-16 1.636296667695996 -18.95368599509259 2.057281059325772 -4.993387938040638 -11.0633596773793 0.18101687124537694 0.0 0.0 -7.951386703658792e-16 0.0 0.0 8.199867538148129e-16 -0.35049778790349734 -26.526535888151802 1.9188474399047701 6.979776542037331e-16 3.2032796913667977e-15 3.487863905317339 0.0 0.0 1.5902773407317584e-15 -52.98320717290596 -25.247831080075663 21.59163499632778 -5.7842868734032545e-15 3.0878341460864835e-15 95.7381105490092 3.1805546814635164e-15 6.3611093629270335e-15 6.3611093629270335e-15 0.0 0.0 1.5902773407317584e-15 0.3277016031987996 -4.021024122892102 4.61136085725882 0.0 0.0 1.5902773407317584e-15 33.01108535262553 -60.6760953627818 -18.785455757304618 -6.8011217649215825e-15 9.369140292592923e-15 -76.15691002256119 0.0 0.0 -3.1805546814635168e-15 0.0 0.0 8.199867538148129e-16 -7.692422108231406 -12.471296373040554 -0.670599301101267 -5.7290965229471995 -10.918502136228003 -1.6624481436770762 -3.975693351829396e-16 6.896728590703373e-34 -1.987846675914698e-16
0.0 0.0 100.47347915466602 -2.59993755809264 -12.397214393133408 152.05982534516608 0.0 0.0 8.075627120903461e-17 0.936290868283661 -18.474708248670478 1.572722928905568 -5.889401943084658 -12.459927329154377 -0.2651962684366713 1.5902773407317584e-15 3.1805546814635168e-15 1.1927080055488188e-15 0.0 0.0 8.075627120903461e-17 -0.7101540283959559 -27.55927131185422 1.5125907634248983 -2.4302803787400405e-15 1.5208316301145905e-15 3.3047518115584698 1.5902773407317584e-15 -1.1034765745125397e-32 -7.951386703658792e-16 -53.040354042726705 -24.985646239186853 22.071019415136828 -1.2906599701873345e-14 -4.017292012381592e-15 90.72339450804414 0.0 0.0 0.0 1.5902773407317584e-15 -1.1034765745125397e-32 -7.951386703658792e-16 0.3147864405894885 -4.062797456454124 4.443587817249237 1.5902773407317584e-15 -1.1034765745125397e-32 -7.951386703658792e-16 35.899930326136754 -55.457597074763065 -15.426040096029134 1.1263629651398925e-14 -8.83052607335269e-15 -76.19188671724008 0.0 0.0 -3.1805546814635168e-15 0.0 0.0 8.075627120903461e-17 -6.373511613564195 -12.47960235261373 -0.530430657787432 -5.503533477918001 -11.349195217606638 -1.5533967750634279 -3.975693351829396e-16 -6.896728590703373e-34 1.987846675914698e-16
0.0 0.0 100.47347915466602 -2.881362869487117 -12.13177236495442 149.7685542189945 0.0 0.0 -7.081703782946112e-16 1.4936692563607135 -16.03214947193764 1.2847756480010464 -6.820188986577292 -15.280888013947783 -0.6328424569254163 -7.951386703658792e-16 -8.276074308844047e-33 1.1927080055488188e-15 0.0 0.0 -7.081703782946112e-16 0.006435666460803302 -27.260221563870495 1.425905878824201 3.5024783637522654e-15 3.2636704600386545e-15 2.6901466027980696 0.0 0.0 -9.93923337957349e-16 -51.61351888245545 -30.48651663498808 23.843393008070393 4.682224704505069e-15 4.3058662477648295e-15 85.20450747944163 -3.1805546814635168e-15 0.0 0.0 0.0 0.0 -9.93923337957349e-16 1.7063831489169488 -4.068342509674923 2.180156475480659 0.0 0.0 -9.93923337957349e-16 36.92693473826492 -57.16472250293212 -15.40550313452907 5.77123783183195e-15 -8.237238293641054e-15 -73.097796837588 0.0 0.0 0.0 0.0 0.0 -7.081703782946112e-16 -3.338657209331076 -11.302187214459035 -0.058140043405578 -3.7696482153577553 -12.81183646386012 -0.8888346063470107 3.975693351829396e-16 -4.138037154422024e-33 -1.1927080055488188e-15
